<?xml version="1.0" standalone="no"?>
<!DOCTYPE svg PUBLIC "-//W3C//DTD SVG 20010904//EN"
 "http://www.w3.org/TR/2001/REC-SVG-20010904/DTD/svg10.dtd">
<svg version="1.0" xmlns="http://www.w3.org/2000/svg"
 width="1038.000000pt" height="1038.000000pt" viewBox="0 0 1038.000000 1038.000000"
 preserveAspectRatio="xMidYMid meet">
<metadata>
Created by potrace 1.11, written by Peter Selinger 2001-2013
</metadata>
<g transform="translate(0.000000,1038.000000) scale(0.100000,-0.100000)"
fill="#000000" stroke="none">
<path d="M832 10360 c-166 -43 -302 -151 -389 -307 -94 -168 -94 -377 0 -557
45 -87 174 -213 257 -253 76 -36 134 -56 172 -58 15 -1 30 -3 32 -6 6 -6 123
-2 169 6 155 26 308 125 392 251 38 57 69 78 94 64 8 -4 26 -5 40 -1 21 5 132
6 177 2 6 -1 11 -16 12 -33 1 -50 9 -111 16 -128 5 -13 -8 -15 -86 -14 -108 1
-121 -2 -115 -27 3 -11 1 -19 -4 -19 -6 0 -6 -7 -1 -17 5 -10 6 -27 2 -38 -4
-11 -4 -29 0 -41 5 -11 4 -28 -1 -37 -6 -9 -6 -17 -1 -17 8 0 7 -69 -2 -77 -3
-3 -1 -15 4 -27 4 -13 4 -29 -1 -39 -6 -9 -6 -17 -1 -17 8 0 7 -69 -2 -77 -3
-3 -1 -15 4 -27 4 -13 5 -29 0 -36 -21 -33 8 -35 523 -33 281 1 515 4 521 6 8
3 11 83 11 263 l0 259 -412 0 c-227 0 -415 4 -419 8 -4 4 2 8 14 8 12 1 25 2
30 4 4 1 24 5 45 9 20 5 37 11 37 15 0 4 6 8 13 8 13 0 144 60 161 75 58 47
68 51 143 52 41 0 77 -2 80 -7 2 -4 9 -4 15 -1 15 10 226 11 260 2 15 -3 30
-3 33 1 4 7 66 6 70 -1 20 -40 90 -129 129 -164 57 -51 180 -124 212 -124 11
0 24 -4 30 -9 5 -5 35 -13 67 -18 306 -51 605 151 678 457 22 93 15 233 -16
320 -14 41 -29 83 -32 93 -3 9 -9 17 -14 17 -5 0 -9 5 -9 11 0 32 -135 168
-210 212 -131 76 -288 103 -415 71 -33 -8 -69 -16 -80 -19 -45 -11 -153 -71
-194 -109 -51 -48 -151 -179 -151 -198 0 -8 -4 -18 -8 -23 -12 -13 -40 -88
-46 -121 -3 -14 -7 -29 -10 -31 -3 -3 -86 -6 -185 -8 l-180 -2 -21 43 c-11 24
-20 48 -20 52 0 14 -124 142 -137 142 -7 0 -16 7 -21 16 -5 8 -15 16 -23 18
-8 1 -24 8 -37 14 -12 7 -35 15 -50 18 -15 2 -47 8 -72 12 -25 4 -51 7 -57 6
-7 -1 -19 -2 -27 -3 -24 -2 -37 -63 -37 -177 -1 -60 -3 -116 -5 -125 -4 -14
-21 -16 -105 -16 -103 0 -111 3 -117 45 -8 58 -80 208 -129 266 -38 46 -137
121 -198 151 -125 61 -275 78 -403 45z"/>
<path d="M6177 10358 c4 -7 8 -16 9 -20 1 -5 3 -10 4 -13 1 -3 4 -9 5 -15 1
-5 3 -11 4 -12 2 -2 5 -14 7 -28 3 -14 13 -50 23 -80 22 -63 122 -378 126
-394 1 -6 5 -18 8 -26 3 -8 18 -54 32 -102 l27 -87 -22 -68 c-12 -37 -24 -75
-27 -83 -9 -21 -9 -21 -17 -55 -4 -16 -11 -39 -16 -50 -11 -26 -139 -424 -146
-455 -3 -14 -8 -35 -11 -47 l-5 -23 44 24 c24 13 55 27 69 31 13 4 66 27 117
51 51 24 98 44 104 44 6 0 19 7 28 15 9 8 25 16 36 18 20 4 82 32 324 145 36
17 77 34 92 37 47 12 51 26 54 176 1 77 7 145 12 152 7 8 48 11 139 9 156 -3
125 -3 266 0 66 2 121 0 124 -5 2 -4 12 -4 21 1 21 9 163 8 179 -1 6 -4 14 -4
16 0 5 9 267 9 289 1 11 -5 13 -138 12 -704 l0 -698 -2897 -1 c-1593 0 -2898
2 -2899 5 0 3 -2 122 -3 265 l-1 260 -175 0 -174 0 -2 -245 c-1 -135 -2 -254
-2 -265 -1 -20 -8 -20 -344 -21 l-342 0 -29 -27 c-16 -15 -35 -27 -42 -27 -8
0 -14 -4 -14 -9 0 -5 -9 -12 -20 -16 -49 -15 -190 -180 -202 -235 -2 -8 -6
-17 -9 -20 -3 -3 -13 -34 -22 -70 -15 -63 -17 -197 -3 -247 3 -13 8 -32 11
-44 19 -86 148 -240 251 -300 29 -16 57 -36 64 -43 6 -8 18 -12 26 -9 8 3 14
1 14 -3 0 -5 20 -9 45 -9 25 0 45 3 45 7 0 4 6 5 14 2 23 -9 226 -10 226 -1 0
5 5 5 11 1 6 -3 740 -6 1630 -6 890 -1 1619 -2 1619 -3 0 -1 -15 -31 -33 -66
-51 -99 -99 -222 -113 -290 -11 -57 -24 -220 -29 -375 -2 -71 -5 -129 -5 -129
-1 0 -3 -44 -4 -97 -3 -95 -10 -125 -24 -101 -22 35 -759 783 -843 855 -65 55
-122 80 -189 79 -102 0 -130 -24 -201 -166 -38 -77 -102 -219 -105 -235 0 -3
-5 -16 -11 -30 -15 -38 -53 -149 -57 -168 -1 -9 -6 -24 -9 -32 -20 -54 -34
-109 -29 -114 3 -3 0 -6 -7 -6 -7 0 -10 -4 -6 -9 17 -29 -35 -19 -220 39 -38
12 -74 23 -80 25 -5 1 -17 5 -25 8 -17 6 -92 31 -100 32 -24 5 -127 39 -135
45 -5 4 -21 10 -35 13 -14 3 -70 19 -125 37 -55 17 -107 33 -115 35 -8 2 -26
8 -40 13 -14 5 -55 9 -91 8 -58 -1 -73 -5 -116 -35 -93 -63 -101 -151 -29
-304 16 -32 59 -105 97 -163 38 -57 69 -109 69 -113 0 -5 4 -11 9 -13 5 -1 36
-39 69 -83 33 -44 90 -118 126 -164 36 -46 66 -92 66 -102 0 -11 -19 -32 -42
-49 -24 -17 -59 -43 -78 -58 -53 -41 -180 -169 -180 -181 0 -6 -3 -11 -8 -11
-9 0 -59 -75 -99 -150 -28 -51 -70 -161 -78 -203 -2 -9 -6 -21 -9 -26 -20 -31
-28 -267 -13 -370 4 -30 15 -80 24 -110 9 -31 17 -58 18 -61 0 -3 4 -11 8 -17
5 -7 6 -13 2 -13 -3 0 -1 -9 5 -21 31 -58 33 -156 5 -240 -13 -38 -21 -69 -18
-69 3 0 1 -6 -5 -13 -6 -7 -14 -32 -18 -55 -4 -23 -9 -42 -13 -42 -21 0 -20
-403 1 -416 4 -3 8 -14 8 -25 0 -29 46 -158 76 -215 28 -53 97 -152 135 -196
97 -108 101 -122 105 -328 3 -199 8 -270 17 -270 4 0 7 -10 7 -23 0 -12 11
-51 24 -87 91 -251 288 -475 510 -580 81 -39 102 -67 146 -200 99 -296 293
-528 533 -639 98 -46 120 -69 205 -216 92 -160 173 -260 267 -330 22 -17 42
-32 45 -35 3 -4 21 -15 40 -27 73 -44 111 -63 125 -63 8 0 15 -5 15 -12 0 -6
3 -9 6 -6 3 3 29 -2 58 -12 61 -22 95 -30 196 -45 55 -8 258 -9 320 -1 57 8
151 35 168 48 6 6 12 8 12 5 0 -3 50 19 111 50 l112 56 85 -43 c83 -41 218
-95 264 -104 13 -3 46 -9 73 -15 50 -10 317 -8 345 2 8 4 31 8 50 11 54 9 132
31 175 51 124 56 327 235 410 360 22 33 43 62 48 63 4 2 7 12 7 23 0 10 3 19
8 19 4 0 16 18 26 40 11 22 24 40 29 40 6 0 7 3 4 6 -12 13 96 102 169 140 41
22 74 42 74 47 0 4 5 7 10 7 31 0 198 148 255 225 17 22 33 42 36 45 27 23
132 242 144 304 6 28 35 129 42 146 3 8 7 17 7 20 5 26 68 108 128 165 87 84
178 187 178 202 0 6 3 13 8 15 11 5 82 127 82 142 0 6 5 17 12 24 7 7 9 12 5
12 -4 0 1 17 11 37 16 33 28 67 37 108 22 99 28 147 30 232 3 98 -4 158 -31
263 -18 71 -8 120 52 239 32 64 59 118 59 121 0 3 6 14 12 25 6 11 22 67 37
125 41 168 49 348 21 470 -31 135 -28 154 50 289 26 45 48 87 49 94 2 6 9 26
15 42 23 54 40 105 36 105 -3 0 0 11 5 24 17 45 24 111 24 231 1 122 -5 173
-25 248 -6 23 -12 47 -14 52 -1 6 -6 19 -10 30 -4 11 -18 46 -31 78 -13 32
-37 81 -54 108 -16 27 -30 54 -30 59 0 6 -3 10 -7 10 -5 0 -19 17 -33 37 -14
21 -32 45 -40 53 -74 79 -92 98 -117 118 -15 12 -39 31 -52 42 -13 11 -50 32
-82 47 -81 39 -92 63 -67 151 11 37 21 75 23 85 2 10 6 26 9 35 3 9 8 31 10
47 3 17 9 51 14 76 9 49 8 247 -2 287 -3 12 -8 30 -10 40 -26 115 -63 190
-120 243 -62 59 -127 60 -231 4 -62 -33 -170 -97 -216 -127 -49 -33 -318 -164
-424 -207 -11 -5 -33 -14 -50 -21 -103 -43 -216 -76 -257 -75 -39 0 -51 6 -73
30 -37 42 -85 112 -85 123 0 6 -4 12 -8 14 -5 2 -23 30 -42 63 -18 33 -36 62
-39 65 -3 3 -11 14 -17 25 -46 86 -60 111 -64 115 -4 4 -18 29 -64 115 -6 11
-14 22 -17 25 -3 3 -21 33 -39 68 -19 34 -38 62 -43 62 -4 0 -5 5 -2 10 3 6 2
10 -3 10 -4 0 -18 17 -30 38 -34 61 -87 110 -132 122 -99 27 -187 -1 -234 -73
-22 -35 -96 -240 -96 -267 0 -5 -5 -21 -11 -37 -6 -15 -10 -30 -10 -33 0 -3
-7 -15 -15 -27 -8 -13 -12 -23 -10 -23 3 0 -15 -43 -39 -96 -50 -108 -135
-254 -147 -254 -4 0 -8 -5 -8 -11 0 -6 -21 -36 -47 -67 -88 -104 -77 -101
-102 -34 -27 77 -40 144 -47 261 -8 115 -8 96 0 203 15 210 107 451 214 564 7
8 11 14 8 14 -3 0 15 21 39 46 l45 45 95 -3 c52 -2 95 0 95 4 0 4 7 5 16 1 23
-8 224 -9 224 -1 0 4 6 5 14 2 22 -8 226 -10 226 -2 0 4 11 3 25 -2 15 -6 26
-6 30 1 4 5 11 6 17 3 9 -6 80 -8 103 -4 6 1 15 1 20 0 23 -5 85 -3 91 3 4 4
13 2 21 -4 9 -8 13 -8 13 0 0 7 8 8 25 1 15 -6 26 -6 30 1 4 5 11 7 16 3 16
-10 109 -10 109 0 0 5 6 3 13 -3 8 -6 16 -8 19 -5 8 7 356 6 368 -1 5 -3 11
-1 15 4 3 7 15 7 30 1 16 -6 27 -6 31 1 4 7 10 7 18 0 7 -6 15 -8 18 -6 7 7
348 9 355 2 3 -3 15 -2 28 3 14 5 26 5 34 -3 6 -6 11 -7 11 -2 0 6 82 10 205
10 113 0 205 -4 205 -8 0 -5 5 -5 12 -1 6 4 257 9 557 10 300 2 562 5 581 7
100 11 248 120 317 235 56 94 78 179 76 300 -3 190 -113 356 -302 455 l-87 46
-316 4 c-174 3 -320 7 -324 10 -11 6 -12 1382 -2 1392 11 11 191 12 206 2 6
-5 12 -6 12 -1 0 5 107 8 237 6 131 -1 252 -2 268 -1 35 1 113 1 135 0 13 -1
15 -22 15 -129 -1 -70 2 -139 6 -154 4 -16 4 -28 -1 -28 -4 0 -6 -9 -3 -20 5
-18 8 -19 22 -7 9 8 77 52 151 98 74 46 138 87 141 92 3 5 10 9 15 10 5 0 38
19 74 42 36 23 76 48 89 55 14 7 34 21 45 31 11 11 24 19 28 19 5 0 14 5 21
10 7 6 32 24 56 41 40 29 43 32 25 42 -10 6 -21 13 -24 16 -3 4 -30 22 -60 41
-30 19 -56 38 -58 42 -2 5 -8 8 -13 8 -6 0 -37 18 -70 40 -33 22 -63 40 -65
40 -3 0 -10 5 -17 10 -24 21 -298 190 -308 190 -5 0 -9 4 -9 9 0 13 -40 21
-41 8 0 -7 -2 -80 -3 -164 -1 -84 -5 -155 -9 -159 -3 -3 -517 -7 -1142 -8
l-1135 -1 -1 45 c-3 194 -6 260 -11 266 -6 6 -255 120 -410 188 -18 8 -69 31
-113 51 -107 50 -129 59 -137 57 -5 -1 -8 3 -8 8 0 6 -3 9 -7 8 -5 -1 -24 5
-43 14 -139 63 -158 69 -143 46z m-2396 -4095 c122 -114 457 -442 490 -480 9
-10 27 -27 40 -39 13 -11 40 -38 60 -60 20 -21 63 -64 95 -95 32 -31 78 -76
100 -100 23 -24 50 -51 60 -60 11 -9 29 -27 41 -40 11 -13 53 -55 92 -93 39
-38 68 -73 64 -77 -5 -4 -66 -20 -138 -35 -114 -24 -153 -28 -315 -28 -189 -1
-236 3 -341 30 -32 8 -67 17 -76 19 -23 4 -131 33 -155 41 -15 4 -64 92 -73
129 -1 6 -5 18 -8 28 -4 9 -10 25 -14 35 -3 9 -8 26 -10 36 -2 11 -10 47 -19
79 -8 33 -17 76 -20 95 -2 20 -7 49 -10 66 -19 105 5 446 41 566 6 21 19 40
26 40 4 0 36 -26 70 -57z m2167 -271 c34 -55 62 -104 62 -110 0 -7 3 -12 8
-12 4 0 16 -17 27 -37 11 -21 30 -55 42 -75 13 -21 36 -62 53 -93 43 -79 54
-99 60 -105 3 -3 16 -27 30 -55 13 -27 35 -68 48 -89 13 -22 25 -45 26 -51 1
-7 10 -24 19 -39 10 -14 20 -39 23 -54 l6 -28 -104 -28 c-99 -26 -117 -30
-183 -41 -78 -13 -310 -27 -495 -29 -120 -1 -149 2 -265 31 -71 17 -131 32
-132 32 -11 4 14 33 153 175 88 89 177 183 199 210 22 26 45 53 50 59 60 68
137 179 200 287 17 28 36 58 43 65 6 8 12 16 12 20 0 9 43 65 49 65 3 0 34
-44 69 -98z m1465 -193 c3 -12 -3 -43 -13 -70 -25 -62 -63 -124 -107 -174 -7
-7 -13 -17 -13 -20 0 -4 -43 -49 -95 -99 -108 -105 -214 -184 -329 -245 -91
-49 -84 -51 -188 51 -63 62 -120 148 -133 199 -9 34 15 49 130 79 50 13 97 27
105 31 8 4 40 17 70 29 79 30 88 34 153 64 117 54 152 69 160 68 4 -1 7 3 7 9
0 5 4 8 9 4 5 -3 12 -1 15 4 4 5 23 15 44 22 20 6 39 16 42 20 3 5 15 10 25
12 11 2 31 8 45 14 68 28 66 28 73 2z m-4458 -39 c28 -7 54 -16 60 -19 5 -3
16 -6 25 -7 31 -4 285 -86 294 -95 6 -5 16 -9 23 -9 20 0 70 -48 82 -78 6 -15
20 -66 30 -114 17 -78 17 -89 4 -100 -13 -10 -30 -5 -102 32 -47 25 -88 48
-91 51 -3 3 -16 12 -29 19 -14 7 -30 17 -35 21 -6 5 -42 33 -81 62 -96 72
-196 162 -248 224 -20 23 -14 51 6 35 7 -5 35 -15 62 -22z m227 -662 c10 -2
20 -6 23 -9 8 -9 -16 -70 -47 -115 -36 -54 -84 -159 -101 -224 -25 -91 -27
-354 -3 -377 3 -4 6 -12 6 -19 0 -7 4 -23 9 -36 5 -13 9 -26 10 -31 2 -15 61
-123 95 -177 20 -30 35 -59 33 -65 -4 -12 -46 -33 -73 -38 -10 -1 -23 -5 -29
-8 -17 -10 -138 -3 -195 11 -30 7 -56 13 -57 12 -2 -1 -38 16 -80 38 -100 51
-169 109 -224 190 -149 220 -121 508 68 696 30 30 76 66 100 81 55 32 168 74
177 66 3 -4 6 -2 6 4 0 10 244 11 282 1z m4218 2 c0 -3 19 -5 43 -6 89 -2 218
-49 291 -104 33 -25 116 -113 116 -123 0 -5 8 -21 19 -35 20 -29 57 -147 61
-197 6 -74 4 -115 -7 -180 -35 -194 -144 -346 -298 -414 -55 -24 -148 -50
-205 -56 -14 -2 -27 -4 -30 -5 -3 -1 -8 -2 -12 -1 -4 0 -22 3 -40 5 -98 14
-236 65 -276 104 -8 6 -22 17 -33 22 -44 24 -56 95 -25 162 50 110 59 360 17
486 -1 1 -1 4 -1 7 0 3 -7 22 -15 42 -8 20 -17 53 -19 74 -3 33 1 43 33 75 79
79 180 128 290 140 25 2 46 6 47 7 5 5 44 3 44 -3z m-3737 -34 c5 5 122 -30
222 -66 28 -10 65 -20 82 -23 18 -3 36 -8 41 -11 9 -6 78 -16 138 -20 75 -6
135 -75 136 -156 0 -34 -8 -99 -19 -145 -6 -26 -5 -163 2 -195 27 -123 23
-181 -15 -247 -44 -76 -181 -162 -300 -187 -68 -14 -269 -14 -292 0 -7 4 -22
9 -35 10 -39 4 -145 67 -192 114 -73 73 -85 91 -124 181 -77 180 -64 372 35
536 58 96 177 200 238 208 18 2 35 6 37 9 3 3 13 1 23 -4 10 -5 20 -7 23 -4z
m2906 -41 c134 -71 231 -224 247 -389 9 -92 9 -90 -11 -211 -4 -26 -19 -72
-38 -115 -29 -68 -123 -190 -147 -190 -4 0 -10 -4 -12 -9 -6 -16 -87 -61 -150
-82 -89 -30 -235 -34 -335 -9 -157 41 -284 132 -299 216 -3 15 -7 31 -9 35
-19 30 -23 463 -6 536 21 88 89 133 222 147 24 3 55 8 69 10 45 10 75 16 105
21 33 5 138 35 200 57 54 19 104 14 164 -17z m-1454 -24 c22 -5 54 -13 70 -16
17 -3 40 -8 53 -10 12 -3 32 -7 45 -10 12 -2 34 -6 48 -9 78 -17 168 -77 169
-113 0 -7 5 -13 11 -13 5 0 8 -4 5 -9 -3 -5 1 -14 8 -21 8 -6 18 -26 22 -43 3
-18 9 -36 12 -42 18 -29 26 -189 14 -250 -19 -91 -21 -100 -58 -173 -23 -48
-58 -96 -98 -136 -108 -111 -237 -155 -442 -151 -105 2 -114 4 -187 39 -78 37
-189 135 -221 194 -92 173 -111 310 -65 473 7 24 13 49 14 54 10 49 130 168
182 181 13 4 23 10 23 15 0 5 3 8 8 7 4 0 14 1 22 4 99 37 151 46 235 43 50
-2 109 -8 130 -14z m628 -1021 c73 -63 242 -163 274 -163 7 0 13 -4 13 -9 0
-5 4 -7 9 -4 5 4 21 2 35 -4 14 -5 42 -10 61 -12 20 -1 38 -5 40 -8 4 -6 128
-4 258 6 110 8 139 -1 155 -45 6 -14 13 -35 18 -46 12 -34 14 -48 17 -115 3
-77 -15 -165 -48 -238 -14 -29 -25 -57 -25 -62 0 -6 -4 -10 -8 -10 -4 0 -16
-15 -27 -32 -26 -45 -115 -138 -131 -138 -8 0 -14 -5 -14 -10 0 -6 -12 -16
-27 -22 -16 -7 -35 -17 -43 -23 -40 -30 -168 -57 -268 -57 -124 0 -199 25
-312 102 -130 89 -157 155 -129 306 14 72 18 201 8 230 -23 66 -33 178 -17
207 16 31 130 157 141 157 4 0 13 -5 20 -10z m-1138 -80 c66 -45 165 -87 245
-105 67 -15 220 -20 360 -13 69 4 117 -10 139 -41 12 -16 23 -39 25 -52 3 -13
5 -26 6 -29 5 -13 5 -196 1 -205 -3 -5 -6 -14 -7 -20 -1 -5 -5 -23 -8 -39 -3
-15 -23 -64 -46 -108 -96 -187 -279 -300 -485 -298 -118 1 -145 3 -145 13 0 4
-9 7 -20 7 -50 0 -225 102 -275 162 -47 56 -97 175 -111 268 -16 103 -1 260
29 315 6 11 11 23 12 26 0 13 75 126 94 143 48 43 96 37 186 -24z m2268 49
c12 -7 53 -32 90 -56 95 -62 204 -96 350 -108 32 -3 61 -6 65 -6 4 -1 9 0 12
1 3 1 24 3 46 5 23 2 66 8 95 14 172 36 165 36 182 -7 30 -76 49 -313 31 -408
-6 -34 -29 -89 -44 -104 -3 -3 -18 -24 -34 -48 -62 -91 -236 -225 -278 -214
-5 1 -8 -2 -8 -6 0 -4 -8 -8 -17 -9 -10 0 -29 -4 -43 -8 -70 -18 -204 -3 -305
34 -134 51 -218 113 -229 173 -6 34 -1 110 10 158 7 27 9 40 21 115 13 88 9
125 -33 330 -2 11 -5 42 -5 69 -1 40 3 53 21 68 26 21 43 22 73 7z m-4209
-100 c36 -17 71 -32 78 -33 7 -2 20 -6 28 -9 8 -3 44 -14 80 -25 l65 -19 0
-97 c0 -53 3 -96 6 -96 4 0 3 -16 -1 -34 -4 -19 -6 -37 -4 -39 2 -2 6 -26 9
-53 8 -89 14 -121 39 -188 26 -72 74 -157 118 -208 24 -28 35 -65 17 -56 -3 2
-12 -2 -20 -9 -9 -8 -42 -11 -89 -9 -85 4 -116 10 -136 27 -8 6 -14 8 -14 4 0
-9 -84 40 -135 79 -184 142 -279 357 -241 546 24 121 89 250 125 250 5 0 38
-14 75 -31z m899 -28 c174 -48 265 -54 407 -27 8 1 33 8 55 14 69 20 71 17 46
-98 -17 -77 -22 -255 -8 -305 13 -46 33 -151 31 -162 -1 -7 -2 -24 -3 -37 -1
-26 -54 -86 -111 -127 -62 -45 -163 -81 -240 -85 -19 -1 -37 -3 -40 -4 -3 -1
-7 -2 -10 -2 -9 0 -104 12 -130 16 -36 6 -143 46 -160 62 -8 7 -19 14 -25 15
-10 2 -69 44 -91 64 -53 50 -117 169 -131 245 -2 14 -8 44 -14 67 -10 48 -13
193 -4 238 10 50 61 114 93 115 6 0 12 5 12 12 0 6 2 9 5 6 3 -3 27 1 53 8 63
16 174 10 265 -15z m712 -832 c4 -5 17 -15 28 -20 21 -9 79 -47 104 -69 23
-19 169 -88 218 -103 28 -9 85 -23 127 -32 54 -11 84 -23 100 -40 13 -13 23
-28 24 -32 0 -4 3 -15 6 -23 30 -77 38 -217 17 -293 -6 -23 -12 -46 -13 -52
-11 -58 -96 -182 -164 -238 -124 -104 -311 -165 -431 -142 -64 12 -218 80
-252 111 -8 8 -19 14 -22 14 -4 0 -32 23 -62 52 -93 88 -154 229 -160 373 -8
167 54 286 171 328 54 19 167 84 199 114 34 31 79 62 92 63 6 0 15 -5 18 -11z
m1214 -11 c20 -7 48 -20 63 -30 14 -10 28 -18 31 -18 3 0 39 -20 80 -44 118
-70 193 -92 323 -95 61 -1 124 -5 140 -7 16 -3 35 -5 41 -6 42 -4 83 -112 89
-229 5 -120 -28 -240 -94 -343 -34 -53 -123 -146 -139 -146 -7 0 -13 -5 -13
-11 0 -5 -4 -7 -10 -4 -5 3 -10 2 -10 -3 0 -9 -78 -47 -91 -44 -4 1 -22 -4
-40 -9 -19 -6 -83 -12 -142 -14 -209 -4 -337 57 -461 220 -33 42 -76 122 -73
135 0 3 -5 14 -11 25 -30 58 -34 236 -7 333 10 34 21 62 25 62 4 0 11 12 15
27 3 15 21 45 38 67 104 134 158 164 246 134z m1316 -83 c49 -20 93 -39 99
-43 6 -3 16 -7 22 -8 6 -1 27 -9 45 -17 80 -35 195 -41 409 -21 129 12 163 11
166 -6 1 -8 12 -49 24 -90 12 -41 23 -102 25 -135 3 -33 5 -62 6 -65 2 -7 2
-9 -5 -70 -6 -53 -44 -180 -57 -190 -3 -3 -14 -21 -24 -40 -10 -19 -44 -59
-75 -90 -75 -71 -86 -80 -105 -80 -8 0 -15 -4 -15 -10 0 -5 -4 -10 -9 -10 -5
0 -22 -5 -38 -11 -15 -6 -30 -11 -33 -11 -3 0 -12 -4 -21 -9 -37 -19 -146 -27
-239 -16 -162 19 -338 136 -418 279 -29 51 -47 104 -43 122 1 4 -3 14 -9 20
-5 7 -8 15 -5 18 3 2 1 19 -4 36 -6 21 -6 32 0 32 6 0 7 5 3 12 -8 12 -7 57 2
128 14 115 52 205 114 270 48 50 70 51 185 5z m-3285 -123 l55 -19 -2 -54 c-1
-30 -5 -85 -8 -124 -4 -38 -7 -74 -7 -80 1 -5 4 -32 6 -60 5 -47 12 -90 16
-90 1 0 3 -9 5 -20 6 -37 14 -64 23 -82 6 -10 10 -20 10 -23 1 -5 15 -44 34
-87 27 -66 21 -83 -40 -116 -149 -80 -351 -88 -498 -21 -57 26 -136 82 -172
123 -101 113 -169 283 -171 431 -2 128 44 225 105 221 118 -8 118 -8 269 15
22 3 52 7 66 8 14 2 30 5 35 8 5 2 29 6 54 7 25 2 46 4 48 6 5 5 111 -22 172
-43z m1617 -822 c54 -58 161 -128 228 -150 22 -7 46 -17 53 -23 6 -5 12 -7 12
-3 0 3 10 2 23 -3 32 -12 110 -23 195 -26 40 -2 75 -5 78 -8 2 -2 22 -1 43 3
22 4 46 3 54 -2 9 -5 18 -4 21 1 4 6 18 6 35 1 16 -4 33 -5 36 -2 4 4 4 -11 1
-33 -4 -22 -8 -56 -10 -75 -10 -91 -20 -126 -57 -205 -40 -83 -46 -91 -119
-166 -69 -70 -143 -112 -220 -126 -86 -15 -280 -9 -345 11 -155 49 -282 181
-335 349 -34 108 -33 367 2 367 4 0 8 5 8 11 0 6 21 39 48 73 26 34 63 83 82
108 l35 46 40 -46 c22 -26 63 -72 92 -102z m1328 15 c33 -31 78 -69 100 -83
22 -15 43 -31 47 -37 5 -7 8 -7 8 0 0 7 3 7 8 0 16 -22 185 -99 243 -110 9 -2
34 -8 55 -14 22 -6 60 -11 85 -11 63 0 81 -21 74 -86 -8 -80 -25 -145 -48
-189 -6 -11 -12 -25 -13 -30 -7 -40 -125 -185 -195 -238 -92 -71 -289 -96
-440 -55 -41 10 -78 24 -83 29 -6 5 -18 9 -27 9 -10 0 -19 3 -21 8 -1 4 -24
18 -51 31 -112 56 -137 118 -108 266 23 116 31 249 18 310 -8 37 34 99 136
202 l101 103 26 -24 c14 -13 52 -50 85 -81z m-2519 -146 c53 -28 103 -52 113
-54 9 -2 32 -9 51 -15 56 -18 115 -23 262 -24 76 -1 138 -5 138 -9 0 -5 4 -6
8 -3 5 3 18 -1 29 -9 17 -12 20 -24 18 -77 -2 -66 -20 -144 -37 -165 -6 -7 -7
-13 -3 -13 10 0 -42 -87 -83 -140 -111 -140 -265 -221 -407 -215 -239 11 -448
126 -532 295 -15 30 -28 58 -29 63 -1 4 -3 9 -4 12 -6 11 -19 87 -25 140 -6
57 25 100 90 126 17 7 36 17 43 22 24 19 237 116 255 116 10 1 61 -22 113 -50z
m786 -641 c92 -89 172 -161 224 -203 117 -95 156 -168 156 -291 0 -55 -28 -89
-131 -158 -99 -65 -177 -90 -286 -91 -107 0 -146 7 -217 36 -108 46 -201 122
-270 222 -43 63 -77 133 -78 158 0 23 22 49 48 54 12 3 31 7 41 9 11 3 30 10
43 17 13 7 24 12 25 11 2 -1 17 5 35 13 54 22 168 108 258 193 47 45 88 81 91
82 4 0 31 -24 61 -52z m1306 -95 c48 -38 99 -74 113 -82 70 -41 128 -70 160
-80 75 -24 100 -82 64 -150 -8 -17 -16 -34 -17 -38 -4 -14 -128 -145 -159
-168 -110 -80 -233 -126 -342 -127 -40 0 -88 3 -107 7 -31 6 -147 61 -160 75
-3 3 -21 17 -40 30 -66 44 -175 163 -198 215 -42 97 -29 120 68 126 56 3 191
49 292 100 73 37 184 117 201 146 14 23 36 14 125 -54z"/>
</g>
</svg>
